# xmcd
#
# Track frame offsets:
#	150
#	18847
#	37727
#	50052
#	68552
#	88045
#	113335
#	124502
#	139400
#	161425
#	173580
#
# Disc length: 2564 seconds
#
# Revision: 0
# Processed by: cddbd v1.5.2PL0 Copyright (c) Steve Scherf et al.
# Submitted via: EasyCDDAExtractor 16.0.0.1
#
DISCID=7e0a020b
DTITLE=หน่อเรียง - ปลาร้าค้างคืน
DYEAR=1900
DGENRE=
TTITLE0=ปลาร้าค้างคืน
TTITLE1=เรือจ้าง
TTITLE2=คำแม่
TTITLE3=แด่เธอผู้จากไป
TTITLE4=บ้า
TTITLE5=หนุ่มสวนยาง
TTITLE6=รักสาวเมืองหนังลุง
TTITLE7=ดิ๊ก เดือ่ง ด่าง
TTITLE8=รักคนมีเจ้าของ
TTITLE9=อดีตรักต้นหมากทัน
TTITLE10=ปลาร้าค้างคืน(ห้ามออกอากาศ)
EXTD=
EXTT0=
EXTT1=
EXTT2=
EXTT3=
EXTT4=
EXTT5=
EXTT6=
EXTT7=
EXTT8=
EXTT9=
EXTT10=
PLAYORDER=
